<?xml version="1.0" standalone="no"?>
<!DOCTYPE svg PUBLIC "-//W3C//DTD SVG 20010904//EN"
 "http://www.w3.org/TR/2001/REC-SVG-20010904/DTD/svg10.dtd">
<svg version="1.0" xmlns="http://www.w3.org/2000/svg"
 width="267.000000pt" height="76.000000pt" viewBox="0 0 267.000000 76.000000"
 preserveAspectRatio="xMidYMid meet">

<g transform="translate(0.000000,76.000000) scale(0.100000,-0.100000)"
fill="#000000" stroke="none">
<path d="M70 475 l0 -287 153 4 c165 5 207 15 260 66 56 53 78 117 78 226 0
121 -44 206 -129 248 -41 20 -66 23 -204 26 l-158 4 0 -287z m313 201 c95 -39
132 -188 80 -316 -33 -81 -76 -101 -220 -102 l-98 -2 -3 217 -2 217 105 0 c67
0 118 -5 138 -14z"/>
<path d="M680 475 l0 -285 35 0 35 0 2 243 3 242 69 -190 c117 -326 103 -295
141 -295 38 0 27 -23 151 315 l59 160 3 -237 2 -238 35 0 35 0 0 286 0 285
-52 -3 -51 -3 -86 -237 c-47 -131 -88 -238 -91 -238 -3 0 -44 108 -90 240
l-85 240 -57 0 -58 0 0 -285z"/>
<path d="M1390 475 l0 -287 153 4 c165 5 207 15 260 66 53 50 70 98 75 204 4
87 2 102 -21 152 -53 116 -99 137 -309 144 l-158 4 0 -287z m307 204 c41 -15
81 -57 94 -98 7 -20 12 -69 12 -108 -1 -88 -30 -156 -82 -190 -30 -21 -46 -23
-147 -23 l-114 0 0 215 0 215 104 0 c58 0 117 -5 133 -11z"/>
<path d="M1940 690 l0 -60 60 0 60 0 0 60 0 60 -60 0 -60 0 0 -60z"/>
<path d="M2090 690 l0 -60 60 0 60 0 0 60 0 60 -60 0 -60 0 0 -60z"/>
<path d="M2240 690 l0 -60 60 0 60 0 0 60 0 60 -60 0 -60 0 0 -60z"/>
<path d="M2390 690 l0 -60 60 0 60 0 0 60 0 60 -60 0 -60 0 0 -60z"/>
<path d="M2540 690 l0 -60 60 0 60 0 0 60 0 60 -60 0 -60 0 0 -60z"/>
<path d="M1940 545 c0 -30 5 -55 10 -56 6 0 28 -1 50 -1 22 0 45 1 50 1 6 1
10 26 10 56 l0 55 -60 0 -60 0 0 -55z"/>
<path d="M2090 546 c0 -61 3 -63 77 -57 l43 3 0 54 0 54 -60 0 -60 0 0 -54z"/>
<path d="M2240 546 l0 -54 50 -4 c28 -1 55 -1 60 0 6 2 10 28 10 58 l0 54 -60
0 -60 0 0 -54z"/>
<path d="M2390 545 l0 -55 60 0 60 0 0 55 0 55 -60 0 -60 0 0 -55z"/>
<path d="M2540 545 l0 -55 60 0 60 0 0 55 0 55 -60 0 -60 0 0 -55z"/>
<path d="M1940 400 l0 -60 60 0 60 0 0 60 0 60 -60 0 -60 0 0 -60z"/>
<path d="M2090 400 l0 -60 60 0 60 0 0 60 0 60 -60 0 -60 0 0 -60z"/>
<path d="M2240 400 l0 -60 60 0 60 0 0 60 0 60 -60 0 -60 0 0 -60z"/>
<path d="M2390 400 l0 -60 60 0 60 0 0 60 0 60 -60 0 -60 0 0 -60z"/>
<path d="M2540 400 l0 -60 60 0 60 0 0 60 0 60 -60 0 -60 0 0 -60z"/>
<path d="M1940 250 l0 -60 60 0 60 0 0 60 0 60 -60 0 -60 0 0 -60z"/>
<path d="M2090 250 l0 -60 60 0 60 0 0 60 0 60 -60 0 -60 0 0 -60z"/>
<path d="M2240 250 l0 -60 60 0 60 0 0 60 0 60 -60 0 -60 0 0 -60z"/>
<path d="M2390 250 l0 -60 60 0 60 0 0 60 0 60 -60 0 -60 0 0 -60z"/>
<path d="M2540 250 l0 -60 60 0 60 0 0 60 0 60 -60 0 -60 0 0 -60z"/>
<path d="M1940 100 l0 -60 60 0 60 0 0 60 0 60 -60 0 -60 0 0 -60z"/>
<path d="M2090 100 l0 -60 60 0 60 0 0 60 0 60 -60 0 -60 0 0 -60z"/>
<path d="M2240 100 l0 -60 60 0 60 0 0 60 0 60 -60 0 -60 0 0 -60z"/>
<path d="M2390 100 l0 -60 60 0 60 0 0 60 0 60 -60 0 -60 0 0 -60z"/>
<path d="M2540 100 l0 -60 60 0 60 0 0 60 0 60 -60 0 -60 0 0 -60z"/>
<path d="M70 85 c0 -54 0 -55 29 -55 32 0 61 30 61 62 0 26 -28 48 -61 48 -29
0 -29 -1 -29 -55z m70 26 c16 -31 -4 -71 -35 -71 -23 0 -25 4 -25 45 0 41 2
45 25 45 14 0 29 -8 35 -19z"/>
<path d="M473 85 c0 -33 2 -45 4 -27 2 18 2 45 0 60 -2 15 -4 0 -4 -33z"/>
<path d="M561 98 c1 -39 2 -40 8 -13 l6 30 13 -43 c7 -23 17 -40 22 -37 6 4
10 11 10 16 0 6 -4 8 -9 5 -5 -3 -14 15 -21 39 -16 57 -30 58 -29 3z"/>
<path d="M636 124 c-4 -9 -4 -19 -1 -22 3 -3 6 1 7 9 0 8 4 -8 8 -36 l7 -50 1
58 c2 55 -9 75 -22 41z"/>
<path d="M860 126 c0 -8 -10 -16 -22 -18 -19 -2 -23 -9 -23 -38 0 -27 4 -35
20 -38 18 -2 18 -2 3 8 -25 15 -24 60 1 60 15 0 21 -8 24 -37 3 -28 4 -23 5
20 1 31 0 57 -3 57 -3 0 -5 -6 -5 -14z"/>
<path d="M950 85 c0 -48 3 -55 19 -55 33 0 52 12 62 38 14 36 -12 72 -51 72
-30 0 -30 -1 -30 -55z m68 6 c4 -35 -9 -51 -40 -51 -15 0 -18 9 -18 46 0 44 1
45 28 42 23 -3 28 -8 30 -37z"/>
<path d="M1323 85 c0 -33 2 -45 4 -27 2 18 2 45 0 60 -2 15 -4 0 -4 -33z"/>
<path d="M338 117 c-8 -23 7 -80 22 -85 12 -4 13 -2 3 9 -15 15 -17 56 -4 61
5 2 3 8 -4 15 -10 9 -14 9 -17 0z"/>
<path d="M1838 118 c-8 -24 7 -81 22 -85 12 -4 12 -2 2 5 -7 5 -12 24 -10 45
2 37 -6 58 -14 35z"/>
<path d="M183 70 c0 -25 2 -35 4 -22 2 12 2 32 0 45 -2 12 -4 2 -4 -23z"/>
<path d="M214 85 c-8 -31 13 -58 38 -51 12 3 18 0 15 -7 -2 -7 -14 -12 -26
-11 -11 0 -21 -3 -21 -8 0 -5 12 -8 28 -6 25 3 27 7 30 53 3 50 2 51 -27 53
-25 2 -32 -2 -37 -23z m51 -15 c0 -29 -32 -41 -41 -16 -9 24 4 48 23 44 12 -2
18 -12 18 -28z"/>
<path d="M390 102 c0 -5 11 -7 25 -4 28 5 35 -14 8 -21 -16 -4 -16 -5 1 -6 12
-1 16 -6 13 -16 -4 -8 -2 -17 4 -21 7 -4 9 8 7 32 -3 34 -6 39 -30 42 -16 2
-28 -1 -28 -6z"/>
<path d="M693 70 c0 -25 2 -35 4 -22 2 12 2 32 0 45 -2 12 -4 2 -4 -23z"/>
<path d="M722 65 c1 -37 1 -38 5 -7 5 39 28 52 48 26 13 -18 14 -18 8 4 -4 17
-12 22 -34 20 -27 -2 -29 -5 -27 -43z"/>
<path d="M1064 96 c-16 -42 20 -86 48 -58 6 6 0 8 -16 5 -19 -4 -26 -1 -26 11
0 11 9 16 30 16 32 0 37 9 18 28 -16 16 -47 15 -54 -2z m46 -6 c0 -5 -9 -10
-20 -10 -11 0 -20 5 -20 10 0 6 9 10 20 10 11 0 20 -4 20 -10z"/>
<path d="M1155 73 c21 -49 23 -50 35 -19 14 37 12 46 -4 17 l-13 -24 -11 32
c-6 17 -14 31 -17 31 -3 0 2 -17 10 -37z"/>
<path d="M1230 91 c-8 -15 -8 -27 0 -41 11 -20 44 -27 54 -11 3 4 -6 6 -19 3
-18 -3 -25 0 -25 12 0 11 9 16 26 16 19 0 25 5 22 18 -5 25 -44 27 -58 3z m50
-1 c0 -5 -9 -10 -20 -10 -11 0 -20 5 -20 10 0 6 9 10 20 10 11 0 20 -4 20 -10z"/>
<path d="M1357 103 c-4 -3 -7 -19 -7 -34 0 -19 6 -30 20 -34 39 -12 66 35 38
63 -13 13 -41 16 -51 5z m48 -33 c0 -38 -39 -35 -43 3 -3 25 0 28 20 25 17 -2
23 -9 23 -28z"/>
<path d="M1441 50 c1 -30 4 -45 6 -34 3 15 10 20 22 17 25 -6 45 21 37 52 -5
21 -12 25 -36 23 -30 -2 -30 -3 -29 -58z m54 20 c0 -29 -32 -41 -41 -16 -9 24
4 48 23 44 12 -2 18 -12 18 -28z"/>
<path d="M1531 66 l2 -41 6 35 c8 48 38 54 44 8 l4 -33 -1 35 c-1 31 -4 35
-28 36 -26 1 -28 -1 -27 -40z"/>
<path d="M1612 104 c11 -3 18 -19 21 -42 l4 -37 -1 40 c-1 32 -5 40 -21 42
-15 1 -15 0 -3 -3z"/>
<path d="M1664 96 c-14 -36 23 -83 46 -60 8 8 4 10 -11 10 -12 -1 -24 5 -26
12 -3 8 6 12 27 12 25 0 31 3 26 16 -3 9 -6 18 -6 20 0 11 -51 2 -56 -10z m51
-6 c4 -6 -5 -10 -20 -10 -15 0 -24 4 -20 10 3 6 12 10 20 10 8 0 17 -4 20 -10z"/>
<path d="M1752 65 c1 -37 1 -38 5 -7 5 36 30 53 44 31 7 -11 9 -10 9 4 0 13
-7 17 -30 15 -28 -2 -30 -5 -28 -43z"/>
<path d="M385 60 c-9 -15 4 -30 23 -29 15 1 14 2 -1 6 -11 3 -16 11 -13 19 6
16 0 19 -9 4z"/>
<path d="M1802 50 c0 -14 2 -19 5 -12 2 6 2 18 0 25 -3 6 -5 1 -5 -13z"/>
</g>
</svg>
